# xmcd
#
# Track frame offsets: 
#        150
#        12945
#        26888
#        38493
#        59903
#        72063
#        87752
#        102464
#        117672
#        133702
#        149124
#        164837
#
# Disc length: 2335 seconds
#
# Revision: 0
# Processed by: cddbd v1.5.2PL0 Copyright (c) Steve Scherf et al.
# Submitted via: ExactAudioCopy v0.99pb4
#
DISCID=b8091d0c
DTITLE=Various Artist - Bose Private Performances: Sound of Goodbye
DYEAR=1900
DGENRE=Country
TTITLE0=Exile - Give Me One More Chance
TTITLE1=Merle Haggard - That's the Way Love Goes
TTITLE2=Larry Gatlin - What Are We Doin' Lonesome
TTITLE3=Karen Brooks - Tonight, I'm Here With Someone Else
TTITLE4=George Strait - Fool Hearted Memory
TTITLE5=Jim Glaser - Man In the Mirror
TTITLE6=Crystal Gayle - The Sound of Goodbye
TTITLE7=Tammy Wynette - You Needed Me
TTITLE8=Rodney Crowell - Heartbroke
TTITLE9=Sissy Spacek - Lonely But Only for You
TTITLE10=Mickey Gilley - Lonely Nights
TTITLE11=David Allen Coe - It's Great to Be Single Again
EXTD=
EXTT0=
EXTT1=
EXTT2=
EXTT3=
EXTT4=
EXTT5=
EXTT6=
EXTT7=
EXTT8=
EXTT9=
EXTT10=
EXTT11=
PLAYORDER=
